{
	"asset":{
		"generator":"Khronos glTF Blender I/O v4.5.49",
		"version":"2.0"
	},
	"extensionsUsed":[
		"KHR_materials_specular",
		"KHR_materials_sheen"
	],
	"scene":0,
	"scenes":[
		{
			"name":"Scene",
			"nodes":[
				1
			]
		}
	],
	"nodes":[
		{
			"mesh":0,
			"name":"PipInserts",
			"translation":[
				0,
				0.8299822211265564,
				0
			]
		},
		{
			"children":[
				0
			],
			"mesh":1,
			"name":"Dice"
		}
	],
	"materials":[
		{
			"doubleSided":true,
			"extensions":{
				"KHR_materials_specular":{
					"specularFactor":0.5
				}
			},
			"name":"PipMaterial.005",
			"pbrMetallicRoughness":{
				"baseColorFactor":[
					1,
					0.9473065137863159,
					0.8227857351303101,
					1
				],
				"metallicFactor":0,
				"roughnessFactor":0.07999999821186066
			}
		},
		{
			"doubleSided":true,
			"extensions":{
				"KHR_materials_specular":{
					"specularFactor":0.6000000238418579
				},
				"KHR_materials_sheen":{
					"sheenColorFactor":[
						1.0,
						1.0,
						1.0
					],
					"sheenRoughnessFactor":0.5
				}
			},
			"name":"DiceBody.007",
			"pbrMetallicRoughness":{
				"baseColorFactor":[
					0.6583748459815979,
					0.009721217676997185,
					0.009721217676997185,
					1
				],
				"metallicFactor":0,
				"roughnessFactor":0.3799999952316284
			}
		}
	],
	"meshes":[
		{
			"name":"Cylinder.232",
			"primitives":[
				{
					"attributes":{
						"POSITION":0,
						"NORMAL":1,
						"TEXCOORD_0":2
					},
					"indices":3,
					"material":0
				}
			]
		},
		{
			"name":"Cube.010",
			"primitives":[
				{
					"attributes":{
						"POSITION":4,
						"NORMAL":5,
						"TEXCOORD_0":6
					},
					"indices":7,
					"material":1
				}
			]
		}
	],
	"accessors":[
		{
			"bufferView":0,
			"componentType":5126,
			"count":10794,
			"max":[
				0.9799822568893433,
				0.15000000596046448,
				0.9799822568893433
			],
			"min":[
				-0.9799822568893433,
				-1.8099644184112549,
				-0.9799822568893433
			],
			"type":"VEC3"
		},
		{
			"bufferView":1,
			"componentType":5126,
			"count":10794,
			"type":"VEC3"
		},
		{
			"bufferView":2,
			"componentType":5126,
			"count":10794,
			"type":"VEC2"
		},
		{
			"bufferView":3,
			"componentType":5123,
			"count":32004,
			"type":"SCALAR"
		},
		{
			"bufferView":4,
			"componentType":5126,
			"count":16074,
			"max":[
				0.999976396560669,
				0.999976396560669,
				0.999976396560669
			],
			"min":[
				-0.9999822378158569,
				-0.9999822378158569,
				-0.9999822378158569
			],
			"type":"VEC3"
		},
		{
			"bufferView":5,
			"componentType":5126,
			"count":16074,
			"type":"VEC3"
		},
		{
			"bufferView":6,
			"componentType":5126,
			"count":16074,
			"type":"VEC2"
		},
		{
			"bufferView":7,
			"componentType":5123,
			"count":60906,
			"type":"SCALAR"
		}
	],
	"bufferViews":[
		{
			"buffer":0,
			"byteLength":129528,
			"byteOffset":0,
			"target":34962
		},
		{
			"buffer":0,
			"byteLength":129528,
			"byteOffset":129528,
			"target":34962
		},
		{
			"buffer":0,
			"byteLength":86352,
			"byteOffset":259056,
			"target":34962
		},
		{
			"buffer":0,
			"byteLength":64008,
			"byteOffset":345408,
			"target":34963
		},
		{
			"buffer":0,
			"byteLength":192888,
			"byteOffset":409416,
			"target":34962
		},
		{
			"buffer":0,
			"byteLength":192888,
			"byteOffset":602304,
			"target":34962
		},
		{
			"buffer":0,
			"byteLength":128592,
			"byteOffset":795192,
			"target":34962
		},
		{
			"buffer":0,
			"byteLength":121812,
			"byteOffset":923784,
			"target":34963
		}
	],
	"buffers":[
		{
			"byteLength":1045596,
			"uri":"redDice.bin"
		}
	]
}
